<svg xmlns="http://www.w3.org/2000/svg" width="400px" height="400px" viewBox="69 69 344.6490682 344.6490682" version="1.1" id="svg5" xml:space="preserve" data-square-offset-x="152.06926909999999" data-square-offset-y="71.3776791"><defs id="defs2" style="fill: rgb(30, 10, 60);"/><g id="layer1" style="fill: rgb(30, 10, 60);"><path style="fill: rgb(30, 10, 60); stroke-width: 1;" d="m 172.3336691 410.96087910000006 c -0.5302,-0.6466 -0.9167,-2.7219 -0.7372,-3.9602 0.5241,-3.6218 2.9387,-12.036 7.4375,-25.9188 5.236,-16.1587 6.7135,-21.3143 6.1731,-21.5304 -0.1142,-0.045 -1.0952,0.6047 -2.1821,1.4443 -2.6175,2.0224 -4.1154,2.7481 -6.4077,3.1037 -2.3809,0.3693 -2.9652,0.077 -1.1348,-0.5677 1.7742,-0.6252 4.4345,-2.4997 5.6479,-3.9811 l 0.9524,-1.1623 -1.4643,0.218 c -2.3819,0.3545 -8.8395,0.1839 -10.368,-0.274 l -1.349,-0.404 1.5305,-0.025 c 3.7759,-0.059 12.6439,-2.0504 12.2167,-2.7426 -0.082,-0.137 -0.2855,-0.2492 -0.4456,-0.2492 -0.1601,0 -0.828,-0.4945 -1.4836,-1.099 -1.4602,-1.3466 -4.8802,-3.0154 -7.7709,-3.7921 -1.6172,-0.4347 -3.003,-0.5874 -5.5307,-0.6097 -3.2854,-0.029 -3.421,-0.01 -5.2564,0.8624 -2.1312,1.0091 -2.5982,1.3712 -3.6861,2.8578 -0.4232,0.5787 -0.7699,0.8823 -0.7699,0.6745 0,-0.8042 1.6845,-3.8834 2.592,-4.7391 1.1339,-1.0694 0.7026,-1.1558 -1.1298,-0.2261 -1.6845,0.8547 -1.7273,0.8468 -0.779,-0.1428 2.0801,-2.1706 5.3216,-3.2335 10.3782,-3.403 2.9214,-0.098 4.1225,-0.019 6.0701,0.3977 1.3358,0.2859 2.4656,0.487 2.5125,0.4469 0.2284,-0.1996 -4.5753,-2.2384 -7.9647,-3.3799 -5.4838,-1.8471 -8.1461,-3.2819 -10.9716,-5.9122 -2.7654,-2.5743 -4.7283,-5.7363 -5.803,-9.348 -0.7535,-2.5349 -0.7138,-3.0491 0.082,-1.1033 2.2147,5.3876 5.9773,8.5327 12.9671,10.8421 2.2382,0.7392 11.8048,3.1271 11.9485,2.9825 0.041,-0.045 -1.9557,-1.4625 -4.4478,-3.1497 -7.4211,-5.0249 -10.4149,-7.7196 -13.0334,-11.7301 -2.2259,-3.4108 -4.0389,-8.8547 -4.8863,-14.6741 -0.4762,-3.2667 -0.4058,-11.1024 0.1316,-14.6867 0.4374,-2.9209 1.762,-8.9022 1.9343,-8.7306 0.051,0.049 -0.041,1.0584 -0.1897,2.2431 -0.4221,3.2756 -0.1142,11.028 0.5772,14.5316 1.2266,6.2132 3.5923,11.861 6.9633,16.6228 2.1556,3.0465 6.1527,7.1313 8.9619,9.1596 l 2.023,1.4609 -1.9057,-2.1392 c -6.9338,-7.7827 -10.7097,-14.6406 -12.2667,-22.2812 -0.6454,-3.1679 -0.9748,-8.9571 -0.6638,-11.6938 l 0.2141,-1.8879 0.3549,2.3759 c 1.3704,9.1705 5.2819,16.686 11.9617,22.9843 l 1.1441,1.0791 -1.4795,-2.0776 c -6.4097,-8.9937 -9.4503,-21.9043 -8.5643,-36.3672 0.618,-10.1091 2.6573,-18.0609 6.6412,-25.9006 1.8099,-3.5616 2.4747,-4.469 1.5886,-2.1687 -3.4424,8.9432 -4.2031,23.232 -1.8517,34.8139 0.5883,2.8977 2.3116,7.9333 3.5739,10.4447 2.4993,4.9708 6.6575,10.2354 12.7378,16.1295 2.954,2.8632 2.9244,2.8125 -2.3432,-4.1184 -5.8958,-7.7557 -8.4918,-12.3621 -10.4527,-18.5438 -1.4724,-4.6401 -2.2025,-10.1054 -1.9547,-14.6312 0.1693,-3.099 1.0462,-8.3473 1.4653,-8.766 0.1305,-0.1308 0.31,1.1626 0.4099,2.9489 0.3375,6.0811 1.8242,11.4406 4.4192,15.9329 2.0057,3.4717 3.472,5.3539 6.682,8.5764 3.9022,3.9177 5.6489,5.1365 2.4818,1.7316 -3.2762,-3.5219 -6.5718,-8.3208 -8.7957,-12.807 -2.3809,-4.8021 -3.113,-7.0085 -3.9665,-11.9411 -0.6199,-3.5829 -0.675,-4.4704 -0.5557,-8.9676 0.1468,-5.4985 0.5792,-8.4607 2.7409,-18.7502 2.3309,-11.0968 3.6841,-15.7371 6.3352,-21.7166 1.1604,-2.6194 2.9214,-5.9367 3.1498,-5.9367 0.071,0 0.041,0.1351 -0.061,0.3002 -1.2522,2.0265 -1.8752,11.0062 -1.0829,15.6173 0.519,3.0278 1.7202,7.0464 2.8714,9.6131 0.4537,1.0115 2.333,4.6344 4.1766,8.0511 3.6953,6.852 4.9066,9.6161 5.9406,13.5589 0.8157,3.1108 1.7283,8.9801 1.7518,11.2685 0,0.8903 0.1172,2.1044 0.2406,2.6979 0.3324,1.6106 0.3436,-4.6943 0.02,-9.9821 -0.5802,-9.3746 -1.3582,-14.2263 -3.0896,-19.268 -0.3783,-1.1009 -0.6434,-2.0458 -0.5894,-2.1 0.1703,-0.1701 1.969,4.2599 2.8153,6.9342 0.9575,3.0263 2.0333,7.752 2.5778,11.3311 l 0.3905,2.5631 0.031,-2.4818 c 0.071,-7.0252 -1.5295,-12.9141 -6.6167,-24.2845 -4.615,-10.3182 -6.0344,-15.6288 -6.0364,-22.5854 0,-4.6295 0.7964,-8.8346 3.3659,-17.7622 4.5161,-15.6828 11.0451,-32.383 16.3474,-41.8123 3.5485,-6.3095 8.6325,-13.0187 8.8283,-11.6494 0.041,0.3076 -1.0125,3.8284 -2.3473,7.8239 -4.1888,12.5365 -5.2237,17.5251 -5.2288,25.2054 0,4.0839 0.092,5.1905 0.7198,8.1958 0.6781,3.2554 2.1648,7.8119 3.0489,9.3404 0.2182,0.3786 0.3201,0.4507 0.2314,0.1643 -0.6057,-1.9529 -1.5142,-7.7272 -1.7762,-11.2926 -0.9555,-12.9691 2.387,-30.031 8.4163,-42.9641 5.2891,-11.3453 12.0515,-23.2328 16.8562,-29.6325 2.3646,-3.1487 5.9325,-6.9239 6.5443,-6.9239 0.1754,0 0.071,0.5655 -0.2692,1.4165 -4.7028,11.8785 -5.5379,17.1512 -4.9067,30.9827 0.1907,4.1943 0.5231,4.4853 0.5884,0.515 0.041,-2.8199 0.7678,-10.4435 1.2633,-13.3545 0.9871,-5.7885 3.6719,-14.683 5.753,-19.0588 3.0733,-6.4616 9.3178,-13.5506 15.3828,-17.4632 0.9524,-0.6137 1.762,-1.0845 1.7997,-1.0461 0.041,0.039 -0.2223,1.0788 -0.5792,2.3119 -1.1665,4.0284 -1.5183,11.8935 -0.9146,20.4638 0.3579,5.0838 0.8382,8.0065 0.6577,4.0009 -0.4252,-9.4135 1.8344,-20.396 5.497,-26.7091 1.3052,-2.2495 4.6008,-5.567 7.2978,-7.3462 2.174,-1.4343 6.9052,-3.85 7.5405,-3.85 0.1682,0 -0.102,0.5286 -0.5914,1.1747 -0.9534,1.2478 -2.2229,4.35 -2.5064,6.1217 -0.2192,1.3768 0.01,1.3519 0.7403,-0.08 1.6498,-3.2443 4.8649,-7.0145 7.4365,-8.7217 3.4852,-2.313 9.0516,-4.3719 13.8961,-5.1392 3.839,-0.6079 9.7399,-0.4129 11.7955,0.3897 2.2565,0.8813 4.2531,2.3279 6.9154,5.0099 5.08,5.1194 7.3019,9.9142 8.3878,18.1044 0.5089,3.84 0.3692,10.7838 -0.2916,14.4967 -0.7219,4.0512 -2.8214,8.4427 -6.1211,12.8015 -0.8086,1.068 -1.1461,1.7059 -0.9024,1.7059 0.6414,0 4.1195,-3.4718 5.336,-5.3248 0.623,-0.9502 1.1685,-1.5562 1.2124,-1.3465 0.041,0.2097 -0.1652,1.4985 -0.463,2.8643 -1.0717,4.9112 -3.4781,9.5615 -7.1713,13.8579 -3.6331,4.2274 -12.5134,11.0475 -17.5353,13.4679 -2.3483,1.1318 -1.866,1.1125 1.8884,-0.075 4.9485,-1.5654 10.002,-4.6834 13.9614,-8.6134 2.957,-2.9341 2.9641,-2.9316 2.2014,0.7615 -0.676,3.2779 -3.4485,10.5654 -5.7173,15.0294 -1.0747,2.1152 -1.6712,2.8639 -4.6252,5.8104 -1.866,1.8602 -4.5151,4.2174 -5.8876,5.2381 -1.3725,1.0207 -2.439,1.9126 -2.3697,1.982 0.071,0.069 1.4959,-0.7915 3.1702,-1.9131 3.2751,-2.1937 7.4619,-5.728 8.6835,-7.3305 0.416,-0.5443 0.8086,-0.9363 0.8738,-0.8712 0.207,0.2073 -1.5081,4.2723 -2.9876,7.0795 -3.6117,6.8524 -8.5877,13.3346 -12.8152,16.6936 -6.0742,4.8256 -15.8315,10.0194 -23.894,12.7186 -1.9292,0.6458 -3.3833,1.179 -3.2313,1.1849 0.1529,0.01 1.7303,-0.3447 3.5076,-0.7791 6.4953,-1.5881 12.0903,-3.9341 17.3946,-7.2933 3.2191,-2.0387 6.9399,-4.8268 8.0728,-6.0497 1.5427,-1.6635 1.195,-0.3081 -0.7179,2.8018 -1.9761,3.2125 -4.7649,6.8059 -6.6034,8.5098 -2.1026,1.9479 -6.1435,4.617 -9.8133,6.4818 -11.6651,5.9271 -23.533,7.4333 -32.8834,4.1733 -1.9618,-0.6842 -1.6743,-0.3602 0.5323,0.6007 7.6322,3.3219 16.382,3.3768 25.8843,0.1626 5.958,-2.0156 10.3415,-4.5072 15.4613,-8.7883 1.8171,-1.52 3.3048,-2.7144 3.3048,-2.6541 0,0.2448 -3.6188,5.9076 -5.0953,7.973 -6.1385,8.5876 -16.4524,16.9766 -34.833,28.3338 -15.2431,9.4177 -23.9093,16.1565 -29.8071,23.1776 -1.9404,2.3103 -5.2513,6.8437 -5.1106,6.9979 0.051,0.056 0.7026,-0.4458 1.447,-1.1151 2.1464,-1.9298 7.4721,-5.8764 10.268,-7.6095 2.9642,-1.8367 8.4705,-4.6752 14.2041,-7.3212 9.5737,-4.4183 16.7032,-8.2665 19.7581,-10.6648 1.0483,-0.8226 0.4252,-0.5778 -1.2399,0.4874 -2.5175,1.6103 -6.8807,3.5596 -12.3431,5.514 -2.8143,1.0069 -5.1483,1.799 -5.1871,1.7603 -0.041,-0.039 1.2634,-0.8309 2.8928,-1.7606 11.3877,-6.4941 24.4293,-16.955 29.9927,-24.0557 l 0.729,-0.9309 0.01,0.7074 c 0.051,2.5698 -4.5712,12.6173 -9.0353,19.6616 -5.0596,7.9861 -11.3449,14.9642 -18.6253,20.6791 -2.4003,1.8837 -9.4646,6.4954 -16.6757,10.8861 -6.3607,3.8724 -11.0798,7.1812 -13.7656,9.6502 -1.9741,1.814 -5.8223,5.9391 -5.0157,5.3754 8.6814,-6.0675 13.4841,-8.5204 23.0659,-11.7818 11.7722,-4.0064 17.8423,-7.2674 25.4959,-13.6966 1.1635,-0.9778 0.725,-0.4632 -1.3052,1.5306 -2.1974,2.1581 -4.0756,3.6775 -6.6717,5.3971 -4.3244,2.8657 -7.1876,4.3495 -16.4116,8.5056 -7.8035,3.5158 -12.4787,6.0247 -16.485,8.8451 -4.3897,3.0908 -10.6087,9.7117 -13.1579,14.0085 l -0.5333,0.8983 0.775,-0.9443 c 1.8966,-2.3122 5.3329,-5.9725 6.7655,-7.2074 4.874,-4.2011 9.5523,-6.4763 21.7945,-10.5996 8.1013,-2.7285 10.4271,-3.626 13.7013,-5.2866 4.9413,-2.506 7.8015,-4.5208 11.5957,-8.1677 1.298,-1.2482 2.3605,-2.1821 2.3605,-2.0754 0,0.5243 -4.3825,5.8712 -8.1002,9.8832 -5.4308,5.86 -11.7283,10.9122 -19.8571,15.9305 -13.4739,8.3185 -16.481,10.4399 -20.8747,14.7305 l -2.5625,2.5028 2.1342,-1.2033 c 2.9306,-1.6516 6.8838,-3.351 11.9444,-5.1338 12.4176,-4.3749 17.1112,-6.7921 25.5214,-13.1429 4.3112,-3.2562 6.8604,-5.5094 11.2195,-9.9185 3.8339,-3.8776 3.9706,-3.895 2.2952,-0.2912 -4.9209,10.5812 -15.2451,20.6103 -29.6857,28.8357 -5.5735,3.1749 -12.4318,5.9413 -19.5175,7.8717 -5.2156,1.4211 -5.6235,1.5748 -3.7769,1.4229 5.9702,-0.4914 14.7873,-2.3887 19.9336,-4.2889 5.3859,-1.9889 12.0984,-6.1383 16.3147,-10.0849 2.3973,-2.2438 2.4687,-2.0707 0.4161,1.0109 -2.2678,3.404 -7.2999,8.1793 -11.6753,11.0776 -4.0776,2.7017 -9.4819,5.5515 -14.1663,7.47 -3.6769,1.506 -13.1293,4.7224 -13.8777,4.7224 -0.2988,0 -0.4803,0.062 -0.4048,0.1372 0.1968,0.1971 10.7443,-0.3622 13.3016,-0.7054 4.5202,-0.6066 11.0135,-2.7045 15.8447,-5.1196 7.1316,-3.5655 16.6839,-10.572 23.2322,-17.0405 1.764,-1.7427 3.1263,-2.9591 3.0284,-2.7029 -0.4517,1.1768 -3.681,6.2761 -5.5572,8.7735 -4.4437,5.9176 -13.1558,15.0315 -18.3317,19.1782 -6.8878,5.517 -15.4908,10.0947 -22.8406,12.1529 -5.5072,1.542 -11.5386,1.8248 -17.0601,0.7998 -1.5295,-0.2839 -0.7495,0.3354 1.5285,1.2122 3.061,1.1788 5.9141,1.6915 10.3364,1.8575 5.3451,0.2006 8.8263,-0.3341 13.6636,-2.0988 1.765,-0.6442 5.445,-2.4848 7.2223,-3.613 2.1821,-1.3846 2.2443,-1.3589 0.5394,0.2216 -5.7132,5.2976 -12.5715,8.4206 -18.8119,8.5667 l -1.9619,0.046 0.9443,0.3998 c 0.52,0.2199 2.644,0.7038 4.7221,1.0753 4.8444,0.8665 12.7887,0.9856 16.0292,0.2404 4.2938,-0.9879 9.9051,-3.2687 12.544,-5.0992 0.8269,-0.5734 0.83,-0.5735 0.3426,-0.012 -0.5924,0.6816 -5.8804,4.453 -8.1584,5.8178 -4.7588,2.852 -11.2929,4.756 -16.4412,4.7913 l -1.8884,0.013 0.9881,0.5222 c 1.1063,0.5843 4.9647,1.3297 7.0734,1.3666 l 1.3807,0.024 -1.3491,0.4197 c -0.9493,0.2955 -2.5053,0.4227 -5.2605,0.4303 -4.6231,0.012 -6.068,-0.3473 -12.8448,-3.1996 -4.2581,-1.7924 -5.4368,-2.1464 -4.0164,-1.2059 1.0461,0.6934 0.5669,0.6733 -2.5635,-0.1074 -1.4092,-0.3516 -2.5991,-0.607 -2.644,-0.5675 -0.041,0.04 1.1706,0.7095 2.698,1.4889 4.5478,2.3197 7.1174,4.4278 8.9191,7.3186 0.7872,1.2639 1.5489,3.9502 1.5489,5.4673 0,1.7424 -0.4018,2.2095 -0.6373,0.7402 -0.092,-0.5653 -0.5496,-1.5604 -1.0207,-2.2112 -0.7464,-1.0302 -0.881,-1.1159 -1.0401,-0.6631 -0.16,0.4562 -0.2049,0.4293 -0.3681,-0.2189 -0.2518,-1.0043 -2.0679,-2.7107 -4.0868,-3.8395 -0.9167,-0.5128 -1.7528,-0.9325 -1.8568,-0.9325 -0.1051,0 0.1815,0.3946 0.6363,0.8768 0.4547,0.4823 1.0941,1.4232 1.4204,2.0909 0.6699,1.3705 0.9656,4.2546 0.5159,5.0296 -0.2447,0.4207 -0.2926,0.3308 -0.2998,-0.5603 -0.031,-3.5432 -5.2074,-7.7203 -10.5617,-8.516 -3.4292,-0.5096 -3.6984,-0.245 -0.777,0.7633 2.7918,0.9639 6.4678,3.2205 7.4833,4.5948 l 0.5976,0.8088 -1.14,-0.6522 c -0.9187,-0.5253 -1.5254,-0.6528 -3.1182,-0.6554 h -1.9761 l 1.1991,1.3716 c 1.5499,1.7714 3.2885,4.8231 4.1685,7.3139 0.9177,2.6009 0.9676,5.5095 0.1407,8.1763 -0.5904,1.9021 -1.657,3.7879 -1.2981,2.2932 0.3202,-1.3319 0.4864,-4.2692 0.2988,-5.273 l -0.1927,-1.0234 -1.0788,1.1922 c -0.5935,0.6558 -0.9922,0.9494 -0.8872,0.6527 0.1061,-0.2968 0.3528,-0.9645 0.5486,-1.4838 0.4956,-1.3136 0.4548,-2.1014 -0.1805,-3.5024 -1.6967,-3.742 -7.2447,-8.3505 -11.5967,-9.6339 -2.6256,-0.7744 -2.7368,-0.6896 -1.9455,1.4804 0.363,0.9947 0.7229,2.6584 0.7994,3.6971 0.1795,2.4299 -0.5333,4.4411 -2.2229,6.2646 l -1.194,1.2895 0.8504,-1.6836 c 0.8422,-1.6693 0.8463,-1.699 0.5129,-3.5073 -0.4293,-2.328 -1.4245,-5.0922 -1.7742,-4.9295 -0.2794,0.1299 -2.0394,3.8584 -3.3762,7.1527 -0.4211,1.0386 -2.284,6.9268 -4.1388,13.0847 -6.5218,21.6482 -9.0058,27.9793 -11.4764,29.2571 -0.9779,0.5054 -0.9718,0.5051 -1.3185,0.083 z m 14.1663,-40.3333 c 1.4469,-3.2592 3.5209,-9.0235 4.9281,-13.6998 1.3602,-4.5174 6.8817,-24.4977 8.9456,-32.3665 0.5832,-2.2258 1.2909,-4.836 1.5713,-5.8004 0.2814,-0.9645 1.0135,-3.6961 1.6263,-6.0703 1.5632,-6.0437 6.6279,-24.7855 9.0048,-33.3188 7.2702,-26.094 18.6661,-59.8204 28.509,-84.3665 11.0318,-27.5111 19.6398,-45.1762 32.1808,-66.0404 6.2251,-10.3554 16.9388,-25.1461 25.504,-35.2073 l 1.4928,-1.7536 -1.2919,1.214 c -1.7008,1.5975 -7.5446,8.0339 -10.5322,11.6009 -12.0607,14.3986 -26.6624,38.0547 -37.786,61.2176 -6.5106,13.5573 -9.382,20.2596 -17.003,39.6831 -2.5869,6.5932 -5.4715,14.6287 -12.0576,33.5887 -5.3084,15.2824 -13.0997,41.1109 -20.1824,66.9073 -1.507,5.4903 -3.0885,11.1962 -3.5127,12.6802 -0.4252,1.4838 -2.4248,8.768 -4.4448,16.1873 -2.0199,7.4191 -4.4672,16.2732 -5.4379,19.6758 -2.7888,9.772 -3.423,13.4336 -2.8867,16.6781 0.092,0.5564 0.256,1.0116 0.3651,1.0116 0.1091,0 0.5628,-0.8194 1.0074,-1.821 z m 40.8613,-43.9183 c 3.6209,-0.7613 7.4874,-2.093 11.5121,-3.9646 1.2399,-0.5767 2.2004,-1.102 2.1352,-1.1674 -0.061,-0.065 -1.3225,0.3716 -2.7939,0.971 -7.0714,2.8807 -14.7659,4.3309 -20.0763,3.784 -1.2614,-0.1298 -2.333,-0.1974 -2.382,-0.1502 -0.051,0.047 0.6791,0.2679 1.6182,0.4902 2.2963,0.5436 7.4854,0.5627 9.9867,0.037 z m -2.2127,-56.3754 c 6.4076,-7.6718 13.9787,-14.1825 25.7019,-22.1038 3.2272,-2.1808 5.8671,-4.032 5.8671,-4.1138 0,-0.082 -0.3181,0.06 -0.7066,0.3145 -0.3895,0.2547 -1.451,0.8937 -2.3605,1.4199 -12.2932,7.1118 -19.3881,12.3759 -23.9644,17.7821 -2.2412,2.6474 -6.0079,7.6588 -6.7971,9.0433 -0.6281,1.1001 -0.5404,1.0096 2.2596,-2.3422 z m -16.7083,-18.6725 c -0.5486,-4.4671 -1.4143,-8.3964 -3.524,-15.9953 -2.5747,-9.2721 -3.7524,-15.877 -3.8085,-21.36 -0.031,-3.1928 -0.041,-3.2556 -0.2855,-1.572 -0.3283,2.2913 -0.071,10.2225 0.4354,13.5199 0.5353,3.4764 1.3205,6.5525 3.8941,15.2554 1.192,4.03 2.4462,8.6032 2.7878,10.1627 0.3406,1.5595 0.6659,2.7892 0.723,2.7327 0.061,-0.056 -0.041,-1.291 -0.2223,-2.7434 z m 36.6276,-24.0899 c 9.5125,-0.7396 15.2278,-3.0165 24.0449,-9.5786 2.9662,-2.2074 3.9175,-3.2145 1.4703,-1.5559 -4.1164,2.7889 -10.6688,6.049 -15.7539,7.838 -3.5546,1.2505 -10.5903,2.7927 -13.6238,2.9865 -2.5064,0.1599 -2.593,0.1836 -1.2145,0.3325 0.8158,0.089 1.5449,0.1773 1.6193,0.1981 0.071,0.02 1.6304,-0.078 3.4577,-0.2206 z m -46.6021,139.547 c 0.5609,-2.4157 -0.071,-4.9687 -1.7721,-7.1133 -1.0595,-1.3392 -1.0391,-1.6096 0.061,-0.8255 0.9789,0.6972 2.1281,2.7968 2.5135,4.5921 0.2458,1.1484 0.2203,1.6244 -0.1499,2.7371 -0.5363,1.6144 -0.9839,2.0319 -0.6536,0.6096 z m -26.3472,-11.4446 c 1.559,-0.9047 6.8124,-1.5513 8.5193,-1.0485 0.5833,0.172 0.4742,0.2416 -0.8096,0.5168 -2.7705,0.5939 -4.717,0.8463 -6.4749,0.8396 -1.4235,-0.01 -1.656,-0.063 -1.2348,-0.3079 z" id="path76"/></g></svg>